<?xml version="1.0" encoding="UTF-8" standalone="no"?> <svg width="64" height="64" viewBox="0 0 64 64" fill="none" xmlns="http://www.w3.org/2000/svg">
<path d="M56.568 32.024C57.3917 32.1153 58.2234 31.9485 58.9483 31.5466C59.6731 31.1447 60.2552 30.5276 60.6141 29.7806C60.973 29.0336 61.091 28.1935 60.9518 27.3765C60.8126 26.5595 60.4231 25.8059 59.8371 25.2199C59.251 24.6339 58.4974 24.2444 57.6804 24.1052C56.8634 23.966 56.0234 24.084 55.2764 24.4429C54.5293 24.8018 53.9122 25.3839 53.5104 26.1087C53.1085 26.8335 52.9417 27.6653 53.033 28.489V28.489C52.8565 28.6656 52.647 28.8057 52.4164 28.9012C52.1858 28.9968 51.9386 29.046 51.689 29.046C51.4393 29.046 51.1922 28.9968 50.9616 28.9012C50.7309 28.8057 50.5214 28.6656 50.345 28.489L46.385 24.529L41.085 29.829L41.219 29.962C41.9113 30.6206 42.7796 31.0645 43.719 31.24C44.3409 31.3757 44.9214 31.6585 45.4116 32.0646C45.9019 32.4707 46.2878 32.9883 46.537 33.5741C46.7862 34.1599 46.8914 34.7969 46.8439 35.4317C46.7964 36.0666 46.5976 36.6808 46.264 37.223C45.9472 37.7386 45.5178 38.1758 45.0079 38.5017C44.4981 38.8275 43.921 39.0337 43.32 39.1046C42.7191 39.1755 42.1099 39.1094 41.5381 38.9111C40.9664 38.7129 40.447 38.3877 40.019 37.96C39.4822 37.4235 39.1129 36.7425 38.956 36C38.7825 35.0606 38.3395 34.192 37.681 33.5L37.546 33.366L32.246 38.666L46.385 52.814L60.527 38.672L56.568 34.712C56.3914 34.5355 56.2513 34.326 56.1557 34.0954C56.0602 33.8648 56.011 33.6176 56.011 33.368C56.011 33.1184 56.0602 32.8712 56.1557 32.6406C56.2513 32.41 56.3914 32.2004 56.568 32.024V32.024Z" fill="#79BD9A"/>
<path d="M42.007 61L41.6 55.642C41.4953 54.2733 40.904 52.9873 39.933 52.017C39.3026 51.386 38.8275 50.6169 38.5455 49.7706C38.2635 48.9244 38.1822 48.0241 38.308 47.141L38.608 45.041L46.386 52.819V50.482C46.3859 49.8761 46.5052 49.2761 46.7372 48.7164C46.9692 48.1567 47.3093 47.6482 47.738 47.22C48.2433 46.7136 48.8596 46.3318 49.538 46.105L50.229 45.875C50.4899 45.7877 50.7271 45.6412 50.922 45.447L51.622 44.747C51.8922 44.4763 52.0676 44.1255 52.122 43.747V43.747C52.1947 43.233 52.3848 42.7426 52.6777 42.314C52.9706 41.8853 53.3583 41.53 53.8108 41.2755C54.2633 41.021 54.7684 40.8742 55.2868 40.8466C55.8052 40.8189 56.323 40.9111 56.8 41.116V41.116C57.0398 41.2187 57.23 41.4111 57.33 41.6521C57.43 41.8932 57.4317 42.1637 57.335 42.406L55.335 47.411C55.027 48.1828 54.79 48.9811 54.627 49.796L54.478 50.539C54.2704 51.5765 53.8862 52.5706 53.342 53.478V53.478C52.4918 54.8948 52.0373 56.5137 52.026 58.166L52.007 61H42.007Z" fill="white"/>
<path d="M7.43198 40.211C6.6083 40.3023 5.77658 40.1355 5.05178 39.7337C4.32698 39.3319 3.74487 38.7149 3.38591 37.9679C3.02696 37.221 2.90886 36.381 3.04796 35.564C3.18705 34.747 3.57647 33.9934 4.16239 33.4073C4.74831 32.8212 5.5018 32.4316 6.31873 32.2923C7.13567 32.153 7.97571 32.2708 8.72277 32.6296C9.46983 32.9883 10.087 33.5702 10.489 34.2949C10.8911 35.0196 11.0581 35.8513 10.967 36.675C11.1434 36.8516 11.3529 36.9917 11.5836 37.0872C11.8142 37.1828 12.0613 37.232 12.311 37.232C12.5606 37.232 12.8078 37.1828 13.0384 37.0872C13.269 36.9917 13.4785 36.8516 13.655 36.675L17.615 32.716L22.915 38.016L22.781 38.15C22.0883 38.808 21.2201 39.2515 20.281 39.427C19.6591 39.5629 19.0789 39.8458 18.5887 40.2519C18.0986 40.6581 17.7128 41.1756 17.4636 41.7614C17.2145 42.3471 17.1092 42.984 17.1566 43.6188C17.204 44.2535 17.4026 44.8677 17.736 45.41C18.0528 45.9255 18.4822 46.3626 18.992 46.6885C19.5018 47.0144 20.0788 47.2205 20.6797 47.2915C21.2806 47.3626 21.8898 47.2966 22.4616 47.0985C23.0333 46.9005 23.5528 46.5755 23.981 46.148C24.5191 45.6102 24.8892 44.9275 25.046 44.183C25.2192 43.2435 25.6622 42.3748 26.321 41.683L26.456 41.549L31.756 46.849L17.615 61L3.47198 46.858L7.43198 42.898C7.7883 42.5417 7.98847 42.0584 7.98847 41.5545C7.98847 41.0506 7.7883 40.5673 7.43198 40.211V40.211Z" fill="#CFF09E"/>
<path d="M32.041 27.325C31.9499 28.1487 32.1169 28.9804 32.5189 29.7051C32.9209 30.4298 33.5381 31.0117 34.2852 31.3704C35.0322 31.7292 35.8723 31.847 36.6892 31.7077C37.5062 31.5684 38.2597 31.1788 38.8456 30.5927C39.4315 30.0066 39.8209 29.253 39.96 28.436C40.0991 27.619 39.981 26.779 39.622 26.0321C39.2631 25.2851 38.681 24.6681 37.9562 24.2663C37.2314 23.8645 36.3997 23.6977 35.576 23.789V23.789C35.2197 23.4327 35.0195 22.9494 35.0195 22.4455C35.0195 21.9416 35.2197 21.4583 35.576 21.102L39.536 17.142L34.236 11.842L34.103 11.975C33.4436 12.6692 32.9997 13.5397 32.825 14.481C32.6893 15.103 32.4066 15.6835 32.0005 16.1738C31.5944 16.664 31.0767 17.0499 30.4908 17.299C29.905 17.5481 29.2679 17.6532 28.6331 17.6056C27.9983 17.5579 27.3841 17.3588 26.842 17.025C26.3265 16.7083 25.8894 16.279 25.5635 15.7693C25.2376 15.2595 25.0315 14.6826 24.9604 14.0818C24.8894 13.4809 24.9554 12.8718 25.1535 12.3002C25.3515 11.7285 25.6765 11.2091 26.104 10.781C26.642 10.2426 27.3251 9.87256 28.07 9.716C29.0096 9.5426 29.8783 9.0992 30.57 8.44L30.7 8.3L25.393 3L11.251 17.142L25.393 31.284L29.353 27.325C29.5294 27.1484 29.7389 27.0083 29.9696 26.9128C30.2002 26.8172 30.4473 26.768 30.697 26.768C30.9466 26.768 31.1938 26.8172 31.4244 26.9128C31.655 27.0083 31.8645 27.1484 32.041 27.325V27.325Z" fill="#A8DBA8"/>
<path d="M11.61 16.846H13.229C14.1973 16.8463 15.1412 16.5418 15.9268 15.9758C16.7124 15.4097 17.2999 14.6107 17.606 13.692L17.836 13.001C17.9234 12.7399 18.0703 12.5027 18.265 12.308L18.965 11.608C19.1065 11.4668 19.2708 11.3505 19.451 11.264C20.3565 10.8828 21.1341 10.2505 21.692 9.44187C22.25 8.63321 22.565 7.68184 22.6 6.69999V6.43C22.4963 6.18984 22.3027 5.99985 22.0606 5.90077C21.8186 5.8017 21.5473 5.80142 21.305 5.9L16.305 7.9C15.5334 8.20878 14.735 8.44611 13.92 8.609V8.609C12.3906 8.91455 10.9252 9.48116 9.588 10.284V10.284C8.59981 10.8768 7.45931 11.1665 6.308 11.117L3 11.058V21.8H7.917C8.61613 21.782 9.31166 21.9056 9.96178 22.1634C10.6119 22.4212 11.2032 22.8078 11.7 23.3C12.3011 23.9322 13.0447 24.4115 13.8688 24.6978C14.6928 24.9842 15.5734 25.0692 16.437 24.946L18.68 24.626L11.61 16.846Z" fill="white"/>
<path d="M57.41 42.04C57.411 42.1667 57.3873 42.2924 57.34 42.41L55.33 47.41C55.0259 48.1842 54.7917 48.9841 54.63 49.8L54.48 50.54C54.2725 51.5784 53.8868 52.5731 53.34 53.48C52.4893 54.897 52.0367 56.5173 52.03 58.17L52.01 61H42.01L41.6 55.64C41.4917 54.2731 40.8996 52.9896 39.93 52.02C38.9167 51.0034 38.3209 49.6441 38.26 48.21C40.544 50.2417 43.1627 51.8624 46 53L38.54 45.54L38.61 45.04L46.39 52.81C47.1026 53.408 48.0135 53.7171 48.9428 53.6764C49.8722 53.6357 50.7525 53.248 51.41 52.59C52.4544 51.5448 53.2418 50.2714 53.71 48.87L55.51 43.46C55.6588 43.0195 55.6852 42.5469 55.5866 42.0926C55.488 41.6383 55.268 41.2192 54.95 40.88C55.5769 40.7819 56.2189 40.8652 56.8 41.12C56.9808 41.1965 57.135 41.3246 57.2435 41.4882C57.3519 41.6518 57.4099 41.8437 57.41 42.04Z" fill="#CFF09E"/>
<path d="M22.6 6.43V6.7C22.5661 7.68176 22.2513 8.63321 21.693 9.44146C21.1347 10.2497 20.3562 10.8808 19.45 11.26C19.2722 11.3501 19.1101 11.4683 18.97 11.61L18.26 12.31C18.0664 12.5027 17.9223 12.7395 17.84 13L17.61 13.69C17.3036 14.6095 16.7157 15.4094 15.9297 15.9765C15.1437 16.5436 14.1992 16.8492 13.23 16.85H11.61L18.68 24.62L16.43 24.94C15.5679 25.0634 14.6889 24.979 13.8661 24.6937C13.0433 24.4084 12.3006 23.9306 11.7 23.3C11.2034 22.8083 10.6126 22.422 9.96307 22.1643C9.31352 21.9065 8.6186 21.7826 7.92 21.8H3V11.06L6 11.11V14.96C6.00056 15.8286 6.29107 16.6722 6.82547 17.3569C7.35987 18.0417 8.10756 18.5284 8.95 18.74C9.63541 18.9077 10.2615 19.2606 10.76 19.76L12.86 21.86C13.5893 22.5895 14.5785 22.9996 15.61 23H16L10.2 16.37C10.0815 16.2359 10.0015 16.0724 9.96834 15.8966C9.93517 15.7208 9.95011 15.5393 10.0116 15.3713C10.073 15.2033 10.1787 15.055 10.3175 14.9421C10.4563 14.8293 10.623 14.756 10.8 14.73L12.87 14.41C13.3696 14.3362 13.8466 14.1527 14.2667 13.8726C14.6869 13.5925 15.0398 13.2228 15.3 12.79L16.26 11.21C16.7371 10.4363 17.498 9.87996 18.38 9.66C19.127 9.46651 19.7906 9.03468 20.27 8.43C20.7446 7.82155 21.0016 7.07164 21 6.3V6.02L21.31 5.9C21.5515 5.80109 21.8223 5.80124 22.0637 5.90043C22.3051 5.99961 22.4978 6.18986 22.6 6.43V6.43Z" fill="#CFF09E"/>
<path d="M57.275 34.005C57.1528 33.8816 57.0689 33.7255 57.0334 33.5556C56.9979 33.3856 57.0124 33.209 57.075 33.047C58.0586 33.0347 59.0167 32.7326 59.8294 32.1785C60.6421 31.6244 61.2733 30.8428 61.644 29.9317C62.0147 29.0206 62.1084 28.0204 61.9134 27.0563C61.7185 26.0922 61.2434 25.207 60.5478 24.5115C59.8522 23.816 58.9669 23.3412 58.0028 23.1464C57.0386 22.9516 56.0384 23.0455 55.1274 23.4164C54.2164 23.7873 53.435 24.4187 52.881 25.2315C52.327 26.0443 52.0251 27.0024 52.013 27.986C51.8512 28.0484 51.6748 28.0628 51.505 28.0273C51.3352 27.9918 51.1793 27.908 51.056 27.786L47.097 23.826C46.9095 23.6385 46.6552 23.5332 46.39 23.5332C46.1249 23.5332 45.8705 23.6385 45.683 23.826L40.927 28.582C40.942 28.491 40.962 28.403 40.973 28.311C41.0523 27.6189 40.9854 26.9178 40.7765 26.2531C40.5676 25.5885 40.2215 24.9752 39.7605 24.4528C39.2995 23.9305 38.734 23.5108 38.1005 23.2209C37.467 22.931 36.7797 22.7774 36.083 22.77C36.0206 22.6082 36.0063 22.4318 36.0417 22.262C36.0772 22.0922 36.161 21.9363 36.283 21.813L40.242 17.853C40.4295 17.6655 40.5348 17.4112 40.5348 17.146C40.5348 16.8808 40.4295 16.6265 40.242 16.439L34.942 11.139C34.7545 10.9518 34.5004 10.8467 34.2355 10.8467C33.9706 10.8467 33.7165 10.9518 33.529 11.139L33.395 11.274C32.597 12.1013 32.0588 13.1442 31.847 14.274C31.7632 14.6691 31.5989 15.0426 31.3642 15.3712C31.1295 15.6999 30.8295 15.9766 30.483 16.184C29.8553 16.5661 29.1091 16.7045 28.386 16.5729C27.663 16.4412 27.0134 16.0488 26.5606 15.47C26.1077 14.8912 25.883 14.1663 25.9292 13.4329C25.9754 12.6994 26.2892 12.0084 26.811 11.491C27.2123 11.0902 27.7212 10.8144 28.276 10.697C29.406 10.4863 30.4491 9.94836 31.276 9.15L31.409 9.015C31.5962 8.82752 31.7013 8.57342 31.7013 8.3085C31.7013 8.04358 31.5962 7.78949 31.409 7.602L26.109 2.302C25.9215 2.11453 25.6672 2.00922 25.402 2.00922C25.1369 2.00922 24.8826 2.11453 24.695 2.302L22.154 4.826C21.7491 4.72495 21.3226 4.75399 20.935 4.909L15.935 6.909C15.2195 7.19471 14.4794 7.41462 13.724 7.566C12.0821 7.89439 10.5091 8.5033 9.07402 9.366C8.24749 9.86537 7.29045 10.106 6.32602 10.057L3.01702 10C2.75181 9.99549 2.49566 10.0965 2.30494 10.2809C2.11421 10.4652 2.00453 10.7178 2.00002 10.983C1.99551 11.2482 2.09655 11.5044 2.28089 11.6951C2.46524 11.8858 2.71781 11.9955 2.98302 12L6.26202 12.055C6.29202 12.055 6.32102 12.055 6.35102 12.055L6.24102 12.237C5.80525 12.9619 5.53185 13.7727 5.43966 14.6134C5.34747 15.4542 5.43869 16.3049 5.70702 17.107C5.74859 17.2318 5.81431 17.3471 5.90046 17.4465C5.9866 17.5458 6.09146 17.6272 6.20907 17.6861C6.32668 17.7449 6.45472 17.78 6.58588 17.7893C6.71705 17.7987 6.84877 17.7821 6.97352 17.7405C7.09828 17.6989 7.21363 17.6332 7.31298 17.5471C7.41233 17.4609 7.49375 17.3561 7.55257 17.2385C7.6114 17.1209 7.64648 16.9928 7.65583 16.8616C7.66517 16.7305 7.64859 16.5988 7.60702 16.474C7.43041 15.9458 7.37043 15.3855 7.4312 14.8319C7.49196 14.2782 7.67204 13.7443 7.95902 13.267L8.93002 11.648C8.93002 11.641 8.93002 11.632 8.93802 11.625C9.34143 11.4798 9.73045 11.2973 10.1 11.08C11.3385 10.336 12.6961 9.81135 14.113 9.529C14.9877 9.35363 15.8446 9.09891 16.673 8.768L21.592 6.8C21.5251 7.56305 21.2499 8.29306 20.7963 8.91029C20.3427 9.52753 19.7283 10.0083 19.02 10.3C18.7374 10.4354 18.4798 10.6176 18.258 10.839L17.558 11.539C17.2546 11.8431 17.0259 12.2135 16.89 12.621L16.659 13.312C16.481 13.8443 16.1818 14.328 15.785 14.725C15.4504 15.0618 15.0522 15.3288 14.6137 15.5106C14.1751 15.6924 13.7048 15.7853 13.23 15.784H10.9C10.7001 15.7816 10.5041 15.8392 10.3373 15.9493C10.1705 16.0593 10.0404 16.2169 9.96402 16.4016C9.8876 16.5863 9.86828 16.7897 9.90857 16.9855C9.94885 17.1813 10.0469 17.3605 10.19 17.5L16.555 23.864L16.292 23.901C15.5863 24.0019 14.8667 23.9325 14.1932 23.6985C13.5198 23.4645 12.9122 23.0728 12.421 22.556C11.8314 21.9666 11.129 21.5022 10.3558 21.1905C9.58264 20.8789 8.75453 20.7263 7.92102 20.742H3.00002C2.73481 20.742 2.48045 20.8474 2.29292 21.0349C2.10538 21.2224 2.00002 21.4768 2.00002 21.742C2.00002 22.0072 2.10538 22.2616 2.29292 22.4491C2.48045 22.6366 2.73481 22.742 3.00002 22.742H7.91702C8.48016 22.7256 9.04083 22.8227 9.56567 23.0275C10.0905 23.2323 10.5688 23.5406 10.972 23.934C11.6826 24.6815 12.5616 25.2482 13.5358 25.5869C14.51 25.9256 15.551 26.0265 16.572 25.881L18.319 25.631L24.684 31.995C24.8751 32.1757 25.1281 32.2763 25.391 32.2763C25.654 32.2763 25.907 32.1757 26.098 31.995L30.057 28.036C30.1804 27.9138 30.3365 27.8299 30.5065 27.7944C30.6764 27.7589 30.8531 27.7734 31.015 27.836C31.0168 28.5569 31.176 29.2686 31.4816 29.9215C31.7873 30.5744 32.2319 31.1525 32.7844 31.6156C33.3368 32.0786 33.9838 32.4153 34.6801 32.6021C35.3763 32.7889 36.105 32.8213 36.815 32.697L31.538 37.973C31.3506 38.1605 31.2452 38.4148 31.2452 38.68C31.2452 38.9452 31.3506 39.1995 31.538 39.387L37.549 45.398L37.316 47C37.1706 48.0367 37.2672 49.093 37.5984 50.0861C37.9296 51.0792 38.4864 51.9821 39.225 52.724C40.0258 53.5261 40.5135 54.5879 40.6 55.718L41.009 61.076C41.0282 61.3278 41.142 61.5631 41.3275 61.7345C41.513 61.9059 41.7565 62.0007 42.009 62H42.086C42.3497 61.9781 42.594 61.8525 42.7653 61.6508C42.9366 61.4492 43.021 61.1878 43 60.924L42.6 55.566C42.4767 53.9594 41.7829 52.4499 40.644 51.31C40.124 50.7883 39.732 50.1532 39.4988 49.4545C39.2656 48.7557 39.1975 48.0125 39.3 47.283L39.317 47.157L45.682 53.521C45.8219 53.6609 46.0002 53.7561 46.1942 53.7946C46.3883 53.8332 46.5894 53.8133 46.7721 53.7375C46.9549 53.6617 47.111 53.5334 47.2208 53.3688C47.3306 53.2043 47.3892 53.0108 47.389 52.813V50.482C47.3877 50.0074 47.4804 49.5373 47.6618 49.0987C47.8433 48.6602 48.1098 48.2619 48.446 47.927C48.8435 47.5311 49.3271 47.2323 49.859 47.054L50.551 46.824C50.9587 46.6868 51.3293 46.4576 51.634 46.154L52.334 45.454C52.7577 45.029 53.0333 44.4788 53.12 43.885C53.1715 43.5235 53.3056 43.1787 53.5118 42.8773C53.718 42.5759 53.9909 42.3261 54.3093 42.1472C54.6276 41.9683 54.9829 41.8651 55.3475 41.8457C55.7122 41.8262 56.0764 41.891 56.412 42.035L54.412 47.04C54.0814 47.8685 53.827 48.7253 53.652 49.6L53.503 50.342C53.3184 51.2675 52.9753 52.1542 52.489 52.963C52.1596 53.5268 51.885 54.1208 51.669 54.737C51.6224 54.7491 51.5769 54.7652 51.533 54.785L49.915 55.755C49.4378 56.0424 48.9039 56.2227 48.3502 56.2834C47.7965 56.3442 47.2362 56.284 46.708 56.107C46.4561 56.0231 46.1811 56.0426 45.9436 56.1615C45.7061 56.2803 45.5255 56.4885 45.4415 56.7405C45.3576 56.9925 45.3772 57.2674 45.496 57.505C45.6148 57.7425 45.8231 57.9231 46.075 58.007C46.877 58.2753 47.7276 58.3664 48.5683 58.2741C49.4089 58.1817 50.2194 57.908 50.944 57.472L51.088 57.386C51.067 57.644 51.033 57.901 51.031 58.162L51.013 60.996C51.0119 61.2597 51.115 61.5131 51.2999 61.7011C51.4847 61.8892 51.7364 61.9966 52 62H52.007C52.2712 62 52.5247 61.8955 52.712 61.7092C52.8994 61.523 53.0054 61.2702 53.007 61.006L53.025 58.172C53.0349 56.6988 53.44 55.2553 54.198 53.992C54.8022 52.9865 55.2285 51.8844 55.458 50.734L55.606 49.992C55.758 49.2373 55.9783 48.4979 56.264 47.783L58.264 42.777C58.3324 42.5986 58.3748 42.4114 58.39 42.221L61.232 39.378C61.4195 39.1905 61.5248 38.9362 61.5248 38.671C61.5248 38.4058 61.4195 38.1515 61.232 37.964L57.275 34.005ZM13.312 17.788C14.7733 17.7711 16.1694 17.1811 17.2 16.145C17.8165 15.5265 18.281 14.7734 18.557 13.945L18.788 13.254C18.826 13.1409 18.8896 13.0383 18.974 12.954L19.674 12.254C19.736 12.1917 19.808 12.1403 19.887 12.102C20.9649 11.6449 21.8883 10.887 22.5468 9.91887C23.2053 8.95076 23.5709 7.81346 23.6 6.643V6.372C23.5942 6.32701 23.5848 6.28254 23.572 6.239L25.398 4.414L29.212 8.229C28.7917 8.46902 28.3356 8.63987 27.861 8.735C26.9279 8.93236 26.0723 9.3965 25.398 10.071C24.8647 10.6016 24.4585 11.2462 24.2102 11.9563C23.9618 12.6665 23.8776 13.4237 23.964 14.171C24.0506 14.9248 24.3067 15.6491 24.7129 16.2899C25.1192 16.9307 25.6652 17.4712 26.31 17.871C26.9885 18.2895 27.7574 18.5393 28.5523 18.5994C29.3472 18.6594 30.1449 18.528 30.8785 18.2161C31.6121 17.9043 32.2603 17.4211 32.7686 16.807C33.2769 16.1929 33.6306 15.466 33.8 14.687C33.8953 14.2095 34.0672 13.7506 34.309 13.328L38.122 17.142L34.869 20.4C34.3255 20.9438 34.0202 21.6812 34.0202 22.45C34.0202 23.2188 34.3255 23.9562 34.869 24.5C34.9752 24.6046 35.103 24.6846 35.2435 24.7344C35.384 24.7841 35.5337 24.8024 35.682 24.788C36.3001 24.7187 36.9243 24.8432 37.4685 25.1442C38.0127 25.4453 38.4499 25.908 38.7196 26.4684C38.9893 27.0288 39.0781 27.6591 38.9739 28.2722C38.8696 28.8853 38.5774 29.4509 38.1377 29.8906C37.6979 30.3304 37.1324 30.6226 36.5192 30.7269C35.9061 30.8311 35.2758 30.7423 34.7154 30.4726C34.155 30.2029 33.6923 29.7657 33.3912 29.2215C33.0902 28.6773 32.9657 28.053 33.035 27.435C33.0509 27.2867 33.0333 27.1367 32.9836 26.996C32.934 26.8553 32.8535 26.7275 32.748 26.622C32.2042 26.0785 31.4669 25.7732 30.698 25.7732C29.9292 25.7732 29.1918 26.0785 28.648 26.622L25.394 29.87L13.312 17.788ZM38.624 32.011C39.2873 31.594 39.8463 31.0306 40.258 30.364C40.2906 30.4267 40.3298 30.4857 40.375 30.54L40.509 30.673C41.3361 31.4712 42.3792 32.0094 43.509 32.221C43.9042 32.3049 44.2778 32.4693 44.6066 32.704C44.9354 32.9386 45.2123 33.2386 45.42 33.585C45.8021 34.2128 45.9405 34.959 45.8089 35.682C45.6773 36.405 45.2848 37.0546 44.706 37.5075C44.1273 37.9603 43.4024 38.185 42.6689 38.1388C41.9355 38.0927 41.2445 37.7789 40.727 37.257C40.3255 36.8563 40.0496 36.3472 39.933 35.792C39.7222 34.6623 39.1847 33.6192 38.387 32.792L38.253 32.658C38.1237 32.5359 37.9637 32.4512 37.79 32.413C38.0801 32.3057 38.3594 32.1711 38.624 32.011V32.011ZM33.657 38.671L37.472 34.857C37.7125 35.2771 37.8833 35.7333 37.978 36.208C38.2365 37.4171 38.9361 38.4865 39.9404 39.2076C40.9448 39.9287 42.1818 40.2497 43.41 40.108C44.1637 40.022 44.8881 39.7664 45.5289 39.3604C46.1697 38.9545 46.7103 38.4087 47.11 37.764C47.5294 37.0857 47.78 36.3167 47.8407 35.5216C47.9015 34.7264 47.7706 33.9283 47.4591 33.1942C47.1476 32.4601 46.6645 31.8114 46.0504 31.3026C45.4364 30.7938 44.7092 30.4397 43.93 30.27C43.4524 30.1741 42.9932 30.0023 42.57 29.761L46.385 25.947L49.638 29.2C50.1903 29.7272 50.9245 30.0213 51.688 30.0213C52.4515 30.0213 53.1857 29.7272 53.738 29.2C53.8435 29.0945 53.924 28.9667 53.9736 28.826C54.0233 28.6853 54.0409 28.5353 54.025 28.387C53.9743 27.9142 54.0369 27.4362 54.2076 26.9924C54.3784 26.5487 54.6524 26.1519 55.0069 25.8351C55.3615 25.5183 55.7864 25.2904 56.2465 25.1705C56.7065 25.0505 57.1886 25.0418 57.6527 25.1452C58.1168 25.2485 58.5496 25.4609 58.9154 25.7648C59.2811 26.0687 59.5691 26.4553 59.7557 26.8926C59.9423 27.3299 60.0221 27.8054 59.9884 28.2797C59.9547 28.754 59.8086 29.2134 59.562 29.62C59.2686 30.1096 58.8396 30.5037 58.3268 30.7547C57.8141 31.0056 57.2397 31.1026 56.673 31.034C56.5247 31.0182 56.3747 31.0357 56.234 31.0854C56.0933 31.135 55.9655 31.2156 55.86 31.321C55.3165 31.8648 55.0112 32.6022 55.0112 33.371C55.0112 34.1398 55.3165 34.8772 55.86 35.421L59.112 38.673L57.448 40.338C57.3687 40.2862 57.2859 40.2401 57.2 40.2C56.5827 39.9352 55.9128 39.8161 55.242 39.8517C54.5713 39.8874 53.9177 40.0769 53.3319 40.4056C52.7462 40.7343 52.2439 41.1934 51.864 41.7473C51.4841 42.3012 51.2367 42.9352 51.141 43.6C51.1169 43.7657 51.0402 43.9193 50.922 44.038L50.222 44.738C50.1376 44.8219 50.0349 44.8852 49.922 44.923L49.231 45.154C48.4043 45.4302 47.653 45.8943 47.036 46.51C45.9965 47.5396 45.4042 48.937 45.387 50.4L33.657 38.671Z" fill="#3B8686"/>
<path d="M27.16 40.848C26.9725 40.6605 26.7182 40.5552 26.453 40.5552C26.1879 40.5552 25.9336 40.6605 25.746 40.848L25.612 40.981C24.814 41.8081 24.2761 42.8512 24.065 43.981C23.9484 44.5361 23.6725 45.0452 23.271 45.446C22.7537 45.9686 22.0624 46.2829 21.3285 46.3294C20.5946 46.3758 19.8692 46.151 19.2901 45.6978C18.711 45.2446 18.3186 44.5944 18.1873 43.8709C18.056 43.1473 18.1951 42.4008 18.578 41.773C18.7859 41.4268 19.0629 41.1271 19.3916 40.8926C19.7204 40.6581 20.094 40.4938 20.489 40.41C21.6185 40.1979 22.6613 39.6602 23.489 38.863L23.623 38.73C23.7161 38.6371 23.79 38.5268 23.8404 38.4053C23.8909 38.2838 23.9168 38.1535 23.9168 38.022C23.9168 37.8905 23.8909 37.7602 23.8404 37.6387C23.79 37.5172 23.7161 37.4069 23.623 37.314L18.323 32.014C18.132 31.8333 17.879 31.7327 17.616 31.7327C17.3531 31.7327 17.1001 31.8333 16.909 32.014L12.95 35.973C12.8267 36.095 12.6708 36.1788 12.501 36.2143C12.3313 36.2498 12.1549 36.2354 11.993 36.173C11.986 35.4761 11.8325 34.7884 11.5426 34.1546C11.2527 33.5208 10.8328 32.955 10.3102 32.494C9.78754 32.0329 9.17382 31.6868 8.50881 31.4782C7.84381 31.2696 7.14238 31.2031 6.45002 31.283C5.69639 31.3692 4.97204 31.6248 4.33126 32.0308C3.69048 32.4367 3.14989 32.9824 2.75002 33.627C2.28512 34.3778 2.0281 35.2387 2.00527 36.1215C1.98244 37.0043 2.19462 37.8773 2.6201 38.6511C3.04558 39.425 3.66906 40.0718 4.42672 40.5255C5.18437 40.9792 6.04898 41.2233 6.93202 41.233C6.99466 41.395 7.0091 41.5716 6.97362 41.7416C6.93813 41.9115 6.85423 42.0676 6.73202 42.191L2.77302 46.151C2.58555 46.3385 2.48024 46.5928 2.48024 46.858C2.48024 47.1232 2.58555 47.3775 2.77302 47.565L16.907 61.707C17.0946 61.8945 17.3489 61.9998 17.614 61.9998C17.8792 61.9998 18.1335 61.8945 18.321 61.707L32.464 47.565C32.6515 47.3775 32.7568 47.1232 32.7568 46.858C32.7568 46.5928 32.6515 46.3385 32.464 46.151L27.16 40.848ZM17.614 59.586L4.88702 46.858L8.13902 43.605C8.68251 43.0612 8.9878 42.3238 8.9878 41.555C8.9878 40.7862 8.68251 40.0488 8.13902 39.505C8.0335 39.3996 7.90572 39.319 7.76504 39.2694C7.62437 39.2197 7.47436 39.2022 7.32602 39.218C6.77035 39.2816 6.20798 39.1879 5.70297 38.9475C5.19795 38.7071 4.77061 38.3298 4.46961 37.8583C4.16861 37.3869 4.00606 36.8405 4.00048 36.2812C3.99489 35.7219 4.1465 35.1723 4.43802 34.695C4.78963 34.1098 5.33083 33.6626 5.97174 33.4275C6.61264 33.1924 7.31469 33.1836 7.96127 33.4026C8.60786 33.6216 9.16008 34.0552 9.52621 34.6314C9.89235 35.2075 10.0504 35.8916 9.97402 36.57C9.95784 36.7182 9.97523 36.8682 10.0249 37.0087C10.0746 37.1493 10.1553 37.2769 10.261 37.382C10.8048 37.9255 11.5422 38.2308 12.311 38.2308C13.0799 38.2308 13.8172 37.9255 14.361 37.382L17.613 34.13L21.428 37.944C21.0046 38.1848 20.5455 38.3566 20.068 38.453C19.2887 38.6223 18.5614 38.9762 17.9472 39.4848C17.333 39.9935 16.8498 40.6422 16.5383 41.3763C16.2267 42.1104 16.0959 42.9086 16.1567 43.7037C16.2176 44.4989 16.4684 45.2678 16.888 45.946C17.2847 46.589 17.8217 47.1339 18.4589 47.5398C19.0961 47.9458 19.8169 48.2022 20.5673 48.29C21.3177 48.3777 22.0782 48.2945 22.7918 48.0465C23.5055 47.7985 24.1537 47.3922 24.688 46.858C25.3629 46.1836 25.8271 45.3275 26.024 44.394C26.1187 43.9193 26.2896 43.4631 26.53 43.043L30.345 46.858L17.614 59.586Z" fill="#3B8686"/>
</svg>
