<?xml version="1.0" encoding="UTF-8" standalone="no"?> <svg width="64" height="64" viewBox="0 0 64 64" fill="none" xmlns="http://www.w3.org/2000/svg">
<path d="M12 19H52C53.0609 19 54.0783 19.4214 54.8284 20.1716C55.5786 20.9217 56 21.9391 56 23V55H8V23C8 21.9391 8.42143 20.9217 9.17157 20.1716C9.92172 19.4214 10.9391 19 12 19V19Z" fill="#E9F1F2"/>
<path d="M56 48V55H8V23C8 21.9391 8.42143 20.9217 9.17157 20.1716C9.92172 19.4214 10.9391 19 12 19H15V37C14.9992 38.4448 15.2832 39.8755 15.8357 41.2104C16.3882 42.5454 17.1985 43.7583 18.2201 44.7799C19.2417 45.8015 20.4546 46.6118 21.7895 47.1643C23.1245 47.7168 24.5552 48.0008 26 48H56Z" fill="#D0D8DA"/>
<path d="M38 53V55H26V53H3V55C3 56.5913 3.63214 58.1174 4.75736 59.2426C5.88258 60.3679 7.4087 61 9 61H55C56.5913 61 58.1174 60.3679 59.2426 59.2426C60.3679 58.1174 61 56.5913 61 55V53H38Z" fill="#93999A"/>
<path d="M60.74 56.74C60.3667 57.9718 59.6072 59.051 58.5736 59.8181C57.54 60.5852 56.2871 60.9995 55 61H9C7.4087 61 5.88258 60.3679 4.75736 59.2426C3.63214 58.1174 3 56.5913 3 55V53H7.35C7.76079 54.1703 8.52523 55.1839 9.53748 55.9005C10.5497 56.6171 11.7597 57.0014 13 57H59C59.5897 57.0006 60.1762 56.913 60.74 56.74V56.74Z" fill="#656B76"/>
<path d="M18 45C17.7088 45.0002 17.421 44.9368 17.1569 44.8143C16.8927 44.6917 16.6585 44.513 16.4706 44.2905C16.2827 44.0681 16.1457 43.8072 16.069 43.5263C15.9924 43.2454 15.9781 42.9511 16.027 42.664C16.1233 42.1867 16.3845 41.7584 16.7647 41.4542C17.145 41.15 17.6201 40.9892 18.107 41H40C40.5304 41 41.0391 40.7893 41.4142 40.4142C41.7893 40.0392 42 39.5304 42 39C42 38.4696 41.7893 37.9609 41.4142 37.5858C41.0391 37.2107 40.5304 37 40 37H18.252C16.6609 36.9753 15.1218 37.5666 13.9567 38.6503C12.7915 39.7341 12.0904 41.2263 12 42.815C11.9752 43.6184 12.1121 44.4185 12.4025 45.168C12.6929 45.9174 13.1309 46.6009 13.6906 47.1778C14.2502 47.7547 14.9201 48.2132 15.6603 48.5263C16.4006 48.8393 17.1962 49.0004 18 49H40C40.5304 49 41.0391 48.7893 41.4142 48.4142C41.7893 48.0392 42 47.5304 42 47C42 46.4696 41.7893 45.9609 41.4142 45.5858C41.0391 45.2107 40.5304 45 40 45H18Z" fill="#F9E109"/>
<path d="M39 45H18C17.4696 45 16.9609 44.7893 16.5858 44.4142C16.2107 44.0391 16 43.5304 16 43C16 42.4696 16.2107 41.9609 16.5858 41.5858C16.9609 41.2107 17.4696 41 18 41H39V45Z" fill="#57B7EB"/>
<path d="M44 37H21C20.2044 37 19.4413 36.6839 18.8787 36.1213C18.3161 35.5587 18 34.7956 18 34C18 33.2044 18.3161 32.4413 18.8787 31.8787C19.4413 31.3161 20.2044 31 21 31H44V37Z" fill="#57B7EB"/>
<path d="M40 31H18V23H40C41.0609 23 42.0783 23.4214 42.8284 24.1716C43.5786 24.9217 44 25.9391 44 27C44 28.0609 43.5786 29.0783 42.8284 29.8284C42.0783 30.5786 41.0609 31 40 31Z" fill="#F8664F"/>
<path d="M40 29H18V25H40C40.5304 25 41.0391 25.2107 41.4142 25.5858C41.7893 25.9609 42 26.4696 42 27C42 27.5304 41.7893 28.0391 41.4142 28.4142C41.0391 28.7893 40.5304 29 40 29Z" fill="#CC5144"/>
<path d="M29 33L26.001 31L23 33V31H29V33Z" fill="#4891D3"/>
<path d="M44 35H21C20.7348 35 20.4804 34.8946 20.2929 34.7071C20.1054 34.5196 20 34.2652 20 34C20 33.7348 20.1054 33.4804 20.2929 33.2929C20.4804 33.1054 20.7348 33 21 33H44V35Z" fill="#4891D3"/>
<path d="M24 29H23V31H24V29Z" fill="#CC5144"/>
<path d="M24 27H25V29H23V28C23 27.7348 23.1054 27.4804 23.2929 27.2929C23.4804 27.1054 23.7348 27 24 27Z" fill="#AD4038"/>
<path d="M30 33L27.001 31L24 33V27H30V33Z" fill="#F9E109"/>
<path d="M42 47C41.9984 47.5299 41.7872 48.0377 41.4125 48.4125C41.0377 48.7872 40.53 48.9984 40 49H18C17.1967 49.0004 16.4015 48.8394 15.6616 48.5267C14.9216 48.214 14.252 47.7558 13.6924 47.1795C13.1329 46.6031 12.6947 45.9203 12.404 45.1714C12.1133 44.4226 11.9759 43.6229 12 42.82C12.0097 42.5448 12.0398 42.2707 12.09 42C12.3228 43.3986 13.0447 44.6691 14.1272 45.5849C15.2096 46.5006 16.5822 47.0022 18 47H40C40.3507 46.9996 40.6952 46.9071 40.9989 46.7315C41.3025 46.556 41.5547 46.3037 41.73 46C41.9063 46.3038 41.9994 46.6487 42 47Z" fill="#FCBC04"/>
<path d="M39 41V42H18C17.7374 41.9986 17.4772 42.0501 17.2349 42.1515C16.9927 42.2529 16.7733 42.402 16.59 42.59C16.3345 42.8384 16.1543 43.1538 16.07 43.5C16.0216 43.3378 15.998 43.1692 16 43C16.0039 42.4708 16.2159 41.9644 16.5901 41.5901C16.9643 41.2159 17.4708 41.0039 18 41H39Z" fill="#4891D3"/>
<path d="M36 10H20V22H36V10Z" fill="#57B7EB"/>
<path d="M23 13.75V15C23 16.3261 23.5268 17.5979 24.4645 18.5355C25.4021 19.4732 26.6739 20 28 20H36V22H20V10H36V13L28 15L23 13.75Z" fill="#4891D3"/>
<path d="M28 13L16 10L28 7L40 10L28 13Z" fill="#84D2F4"/>
<path d="M14 19C15.1046 19 16 18.1046 16 17C16 15.8954 15.1046 15 14 15C12.8954 15 12 15.8954 12 17C12 18.1046 12.8954 19 14 19Z" fill="#57B7EB"/>
<path d="M40 10L28 13L16 10L20 9L22.33 9.58C26.0528 10.5098 29.9472 10.5098 33.67 9.58L36 9L40 10Z" fill="#57B7EB"/>
<path d="M15.82 17.82C15.6881 18.1166 15.4861 18.3766 15.2313 18.5777C14.9765 18.7787 14.6766 18.9147 14.3575 18.9739C14.0383 19.0332 13.7096 19.0139 13.3996 18.9177C13.0896 18.8215 12.8077 18.6513 12.5782 18.4217C12.3487 18.1922 12.1785 17.9103 12.0823 17.6004C11.9861 17.2904 11.9668 16.9616 12.026 16.6425C12.0853 16.3234 12.2213 16.0235 12.4223 15.7687C12.6234 15.5139 12.8834 15.3118 13.18 15.18C13.0593 15.4364 12.9978 15.7166 13 16C13.0016 16.5299 13.2128 17.0377 13.5875 17.4125C13.9622 17.7872 14.47 17.9984 15 18C15.2833 18.0022 15.5636 17.9407 15.82 17.82V17.82Z" fill="#4891D3"/>
<path d="M8 50C8.26522 50 8.51957 49.8946 8.70711 49.7071C8.89464 49.5195 9 49.2652 9 49V23C9 22.2043 9.31607 21.4413 9.87868 20.8787C10.4413 20.316 11.2044 20 12 20H19V22H18C17.7348 22 17.4804 22.1053 17.2929 22.2929C17.1054 22.4804 17 22.7348 17 23V27C17 27.2652 17.1054 27.5195 17.2929 27.7071C17.4804 27.8946 17.7348 28 18 28H23V30H17C16.7348 30 16.4804 30.1053 16.2929 30.2929C16.1054 30.4804 16 30.7348 16 31C16 31.2652 16.1054 31.5195 16.2929 31.7071C16.4804 31.8946 16.7348 32 17 32H17.556C17.1892 32.6093 16.9968 33.3078 17 34.019C17.0032 34.7302 17.2017 35.4269 17.574 36.033C15.8465 36.1723 14.2282 36.9335 13.0193 38.1754C11.8104 39.4172 11.0929 41.0554 11 42.786C10.9713 43.7231 11.1312 44.6564 11.4701 45.5305C11.8091 46.4047 12.3201 47.2018 12.973 47.8746C13.6259 48.5475 14.4073 49.0823 15.2708 49.4474C16.1344 49.8125 17.0625 50.0004 18 50H40C40.7956 50 41.5587 49.6839 42.1213 49.1213C42.6839 48.5587 43 47.7956 43 47C43 46.2043 42.6839 45.4413 42.1213 44.8787C41.5587 44.316 40.7956 44 40 44V42C40.7956 42 41.5587 41.6839 42.1213 41.1213C42.6839 40.5587 43 39.7956 43 39C42.9967 38.6585 42.9344 38.3202 42.816 38H47C47.2652 38 47.5196 37.8946 47.7071 37.7071C47.8946 37.5195 48 37.2652 48 37C48 36.7348 47.8946 36.4804 47.7071 36.2929C47.5196 36.1053 47.2652 36 47 36H45V32H47C47.2652 32 47.5196 31.8946 47.7071 31.7071C47.8946 31.5195 48 31.2652 48 31C48 30.7348 47.8946 30.4804 47.7071 30.2929C47.5196 30.1053 47.2652 30 47 30H43.974C44.6358 29.1396 44.9963 28.0854 45 27C44.9984 25.6744 44.4711 24.4035 43.5338 23.4662C42.5964 22.5289 41.3256 22.0016 40 22H37V15C37 14.7348 36.8946 14.4804 36.7071 14.2929C36.5196 14.1053 36.2652 14 36 14C35.7348 14 35.4804 14.1053 35.2929 14.2929C35.1054 14.4804 35 14.7348 35 15V22H21V12.281L27.757 13.97C27.9165 14.0099 28.0835 14.0099 28.243 13.97L40.243 10.97C40.4592 10.9158 40.6511 10.7909 40.7883 10.6152C40.9254 10.4394 40.9999 10.2229 40.9999 9.99997C40.9999 9.77706 40.9254 9.56054 40.7883 9.38479C40.6511 9.20905 40.4592 9.08416 40.243 9.02997L28.243 6.02997C28.0835 5.99001 27.9165 5.99001 27.757 6.02997L15.757 9.02997C15.5408 9.08414 15.3488 9.20902 15.2117 9.38477C15.0745 9.56051 15 9.77704 15 9.99997V14.184C14.6797 14.0655 14.3414 14.0033 14 14C13.5121 13.9972 13.0309 14.1141 12.5987 14.3406C12.1665 14.567 11.7964 14.896 11.5209 15.2987C11.2454 15.7014 11.0729 16.1656 11.0185 16.6505C10.9641 17.1354 11.0296 17.6262 11.209 18.08C10.0379 18.2676 8.9716 18.8654 8.20058 19.7667C7.42957 20.6679 7.00404 21.8139 7 23V49C7 49.2652 7.10536 49.5195 7.29289 49.7071C7.48043 49.8946 7.73478 50 8 50ZM29 31.131L27.555 30.168C27.3908 30.0585 27.1978 30.0002 27.0005 30.0002C26.8032 30.0002 26.6102 30.0585 26.446 30.168L25 31.132V28H29V31.131ZM23 32V33C23 33.181 23.0491 33.3587 23.1421 33.514C23.2352 33.6693 23.3686 33.7964 23.5282 33.8818C23.6879 33.9673 23.8677 34.0077 24.0485 33.9989C24.2293 33.9902 24.4044 33.9325 24.555 33.832L27 32.2L29.444 33.83C29.5945 33.9306 29.7694 33.9885 29.9503 33.9976C30.1311 34.0066 30.3109 33.9663 30.4706 33.8811C30.6304 33.7959 30.764 33.6689 30.8572 33.5138C30.9504 33.3586 30.9998 33.181 31 33V32H43V36H21C20.4696 36 19.9609 35.7893 19.5858 35.4142C19.2107 35.0391 19 34.5304 19 34C19 33.4695 19.2107 32.9608 19.5858 32.5858C19.9609 32.2107 20.4696 32 21 32H23ZM38 44H18C17.8537 44.0002 17.7092 43.9683 17.5766 43.9066C17.444 43.8449 17.3266 43.7548 17.2325 43.6428C17.1385 43.5307 17.0702 43.3994 17.0325 43.2581C16.9947 43.1168 16.9884 42.969 17.014 42.825C17.0736 42.5828 17.2148 42.3685 17.4139 42.2183C17.613 42.068 17.8577 41.9909 18.107 42H38V44ZM41 39C41 39.2652 40.8946 39.5195 40.7071 39.7071C40.5196 39.8946 40.2652 40 40 40H18.107C17.3838 39.9907 16.6805 40.2361 16.1199 40.6931C15.5594 41.1502 15.1775 41.7898 15.041 42.5C14.9683 42.9302 14.9903 43.3712 15.1055 43.792C15.2207 44.2129 15.4263 44.6036 15.7081 44.9368C15.9898 45.2701 16.3408 45.5378 16.7367 45.7214C17.1325 45.9051 17.5636 46.0001 18 46H40C40.2652 46 40.5196 46.1053 40.7071 46.2929C40.8946 46.4804 41 46.7348 41 47C41 47.2652 40.8946 47.5195 40.7071 47.7071C40.5196 47.8946 40.2652 48 40 48H18C17.3301 48.0003 16.667 47.866 16.0501 47.6051C15.4331 47.3442 14.8749 46.962 14.4085 46.4811C13.9421 46.0003 13.5771 45.4307 13.3352 44.806C13.0932 44.1814 12.9792 43.5145 13 42.845C13.0837 41.5167 13.6763 40.2718 14.6546 39.3694C15.6328 38.467 16.9213 37.9765 18.252 38H40C40.2652 38 40.5196 38.1053 40.7071 38.2929C40.8946 38.4804 41 38.7348 41 39ZM43 27C43 27.7956 42.6839 28.5587 42.1213 29.1213C41.5587 29.6839 40.7956 30 40 30H31V28H40C40.2652 28 40.5196 27.8946 40.7071 27.7071C40.8946 27.5195 41 27.2652 41 27C41 26.7348 40.8946 26.4804 40.7071 26.2929C40.5196 26.1053 40.2652 26 40 26H19V24H40C40.7956 24 41.5587 24.316 42.1213 24.8787C42.6839 25.4413 43 26.2043 43 27ZM19 18H16.816C16.9344 17.6797 16.9967 17.3414 17 17V11.281L19 11.781V18ZM28 8.03097L35.877 9.99997L28 11.969L20.123 9.99997L28 8.03097ZM14 16C14.1978 16 14.3911 16.0586 14.5556 16.1685C14.72 16.2784 14.8482 16.4346 14.9239 16.6173C14.9996 16.8 15.0194 17.0011 14.9808 17.1951C14.9422 17.389 14.847 17.5672 14.7071 17.7071C14.5673 17.8469 14.3891 17.9422 14.1951 17.9808C14.0011 18.0193 13.8 17.9995 13.6173 17.9239C13.4346 17.8482 13.2784 17.72 13.1685 17.5555C13.0586 17.3911 13 17.1978 13 17C13 16.7348 13.1054 16.4804 13.2929 16.2929C13.4804 16.1053 13.7348 16 14 16V16Z" fill="#464A51"/>
<path d="M61 52H57V23C56.9984 21.6744 56.4711 20.4036 55.5338 19.4662C54.5964 18.5289 53.3256 18.0016 52 18H40C39.7348 18 39.4804 18.1054 39.2929 18.2929C39.1054 18.4804 39 18.7348 39 19C39 19.2652 39.1054 19.5196 39.2929 19.7071C39.4804 19.8946 39.7348 20 40 20H52C52.7956 20 53.5587 20.3161 54.1213 20.8787C54.6839 21.4413 55 22.2044 55 23V52H38C37.7348 52 37.4804 52.1054 37.2929 52.2929C37.1054 52.4804 37 52.7348 37 53V54H27V53C27 52.7348 26.8946 52.4804 26.7071 52.2929C26.5196 52.1054 26.2652 52 26 52H3C2.73478 52 2.48043 52.1054 2.29289 52.2929C2.10536 52.4804 2 52.7348 2 53V55C2.00212 56.8559 2.7403 58.6351 4.05259 59.9474C5.36489 61.2597 7.14413 61.9979 9 62H22C22.2652 62 22.5196 61.8946 22.7071 61.7071C22.8946 61.5196 23 61.2652 23 61C23 60.7348 22.8946 60.4804 22.7071 60.2929C22.5196 60.1054 22.2652 60 22 60H9C7.6744 59.9984 6.40356 59.4711 5.46622 58.5338C4.52888 57.5964 4.00159 56.3256 4 55V54H25V55C25 55.2652 25.1054 55.5196 25.2929 55.7071C25.4804 55.8946 25.7348 56 26 56H38C38.2652 56 38.5196 55.8946 38.7071 55.7071C38.8946 55.5196 39 55.2652 39 55V54H60V55C59.9984 56.3256 59.4711 57.5964 58.5338 58.5338C57.5964 59.4711 56.3256 59.9984 55 60H26C25.7348 60 25.4804 60.1054 25.2929 60.2929C25.1054 60.4804 25 60.7348 25 61C25 61.2652 25.1054 61.5196 25.2929 61.7071C25.4804 61.8946 25.7348 62 26 62H55C56.8559 61.9979 58.6351 61.2597 59.9474 59.9474C61.2597 58.6351 61.9979 56.8559 62 55V53C62 52.7348 61.8946 52.4804 61.7071 52.2929C61.5196 52.1054 61.2652 52 61 52Z" fill="#464A51"/>
<path d="M50 58C50.5523 58 51 57.5523 51 57C51 56.4477 50.5523 56 50 56C49.4477 56 49 56.4477 49 57C49 57.5523 49.4477 58 50 58Z" fill="#464A51"/>
<path d="M54 58C54.5523 58 55 57.5523 55 57C55 56.4477 54.5523 56 54 56C53.4477 56 53 56.4477 53 57C53 57.5523 53.4477 58 54 58Z" fill="#464A51"/>
<path d="M10 58C10.5523 58 11 57.5523 11 57C11 56.4477 10.5523 56 10 56C9.44772 56 9 56.4477 9 57C9 57.5523 9.44772 58 10 58Z" fill="#464A51"/>
<path d="M14 58C14.5523 58 15 57.5523 15 57C15 56.4477 14.5523 56 14 56C13.4477 56 13 56.4477 13 57C13 57.5523 13.4477 58 14 58Z" fill="#464A51"/>
<path d="M52 42C52.2652 42 52.5196 41.8946 52.7071 41.7071C52.8946 41.5196 53 41.2652 53 41C53 40.7348 52.8946 40.4804 52.7071 40.2929C52.5196 40.1054 52.2652 40 52 40H46C45.7348 40 45.4804 40.1054 45.2929 40.2929C45.1054 40.4804 45 40.7348 45 41V49C45 49.2652 45.1054 49.5196 45.2929 49.7071C45.4804 49.8946 45.7348 50 46 50H52C52.2652 50 52.5196 49.8946 52.7071 49.7071C52.8946 49.5196 53 49.2652 53 49C53 48.7348 52.8946 48.4804 52.7071 48.2929C52.5196 48.1054 52.2652 48 52 48H47V46H50C50.2652 46 50.5196 45.8946 50.7071 45.7071C50.8946 45.5196 51 45.2652 51 45C51 44.7348 50.8946 44.4804 50.7071 44.2929C50.5196 44.1054 50.2652 44 50 44H47V42H52Z" fill="#464A51"/>
</svg>
